<svg width="73" height="76" viewBox="0 0 73 76" fill="none" xmlns="http://www.w3.org/2000/svg">
<path d="M19.7707 6.3335C17.7539 6.3335 15.8198 7.16757 14.3937 8.65223C12.9677 10.1369 12.1665 12.1505 12.1665 14.2502V61.7502C12.1665 63.8498 12.9677 65.8634 14.3937 67.3481C15.8198 68.8328 17.7539 69.6668 19.7707 69.6668H38.9636C37.6596 68.2536 36.5555 66.6542 35.6847 64.9168H19.7707C18.964 64.9168 18.1903 64.5832 17.6199 63.9893C17.0495 63.3955 16.729 62.59 16.729 61.7502H34.4102C33.2006 57.8636 33.1293 53.6902 34.2054 49.7613C35.2816 45.8324 37.4564 42.3258 40.453 39.6879C43.4496 37.05 47.1324 35.4002 51.0326 34.9485C54.9328 34.4968 58.8738 35.2637 62.354 37.1515V14.2502C62.354 13.2105 62.1573 12.1811 61.7752 11.2206C61.393 10.2601 60.8329 9.38736 60.1268 8.65223C59.4207 7.9171 58.5824 7.33397 57.6598 6.93612C56.7372 6.53827 55.7484 6.3335 54.7498 6.3335H19.7707ZM24.3332 15.8335H48.6665C49.4732 15.8335 50.2469 16.1671 50.8173 16.761C51.3877 17.3549 51.7082 18.1603 51.7082 19.0002V22.1668C51.7082 23.0067 51.3877 23.8121 50.8173 24.406C50.2469 24.9999 49.4732 25.3335 48.6665 25.3335H24.3332C23.5265 25.3335 22.7528 24.9999 22.1824 24.406C21.612 23.8121 21.2915 23.0067 21.2915 22.1668V19.0002C21.2915 18.1603 21.612 17.3549 22.1824 16.761C22.7528 16.1671 23.5265 15.8335 24.3332 15.8335ZM69.9582 55.4168C69.9582 50.7976 68.1956 46.3676 65.0583 43.1014C61.921 39.8351 57.6659 38.0002 53.229 38.0002C48.7922 38.0002 44.537 39.8351 41.3997 43.1014C38.2624 46.3676 36.4998 50.7976 36.4998 55.4168C36.4998 60.036 38.2624 64.466 41.3997 67.7323C44.537 70.9985 48.7922 72.8335 53.229 72.8335C57.6659 72.8335 61.921 70.9985 65.0583 67.7323C68.1956 64.466 69.9582 60.036 69.9582 55.4168ZM54.7498 57.0002L54.7529 64.9263C54.7529 65.3463 54.5927 65.749 54.3074 66.0459C54.0222 66.3429 53.6354 66.5097 53.232 66.5097C52.8287 66.5097 52.4419 66.3429 52.1567 66.0459C51.8714 65.749 51.7112 65.3463 51.7112 64.9263V57.0002H44.0918C43.6885 57.0002 43.3017 56.8334 43.0164 56.5364C42.7312 56.2395 42.571 55.8368 42.571 55.4168C42.571 54.9969 42.7312 54.5942 43.0164 54.2972C43.3017 54.0003 43.6885 53.8335 44.0918 53.8335H51.7082V45.9168C51.7082 45.4969 51.8684 45.0942 52.1536 44.7972C52.4388 44.5003 52.8257 44.3335 53.229 44.3335C53.6324 44.3335 54.0192 44.5003 54.3044 44.7972C54.5896 45.0942 54.7498 45.4969 54.7498 45.9168V53.8335H62.3449C62.7482 53.8335 63.1351 54.0003 63.4203 54.2972C63.7055 54.5942 63.8657 54.9969 63.8657 55.4168C63.8657 55.8368 63.7055 56.2395 63.4203 56.5364C63.1351 56.8334 62.7482 57.0002 62.3449 57.0002H54.7498Z" fill="#FFC119"/>
</svg>
