<svg width="82" height="78" viewBox="0 0 82 78" fill="none" xmlns="http://www.w3.org/2000/svg">
<path d="M52.1672 22.7227C52.1672 21.753 52.5722 20.8231 53.293 20.1374C54.0139 19.4517 54.9916 19.0665 56.011 19.0665H59.8547V15.4102C59.8547 14.4405 60.2597 13.5106 60.9805 12.8249C61.7014 12.1392 62.6791 11.754 63.6985 11.754C64.7179 11.754 65.6956 12.1392 66.4164 12.8249C67.1373 13.5106 67.5422 14.4405 67.5422 15.4102V19.0665H71.386C72.4054 19.0665 73.3831 19.4517 74.1039 20.1374C74.8248 20.8231 75.2297 21.753 75.2297 22.7227C75.2297 23.6924 74.8248 24.6224 74.1039 25.3081C73.3831 25.9938 72.4054 26.379 71.386 26.379H67.5422V30.0352C67.5422 31.0049 67.1373 31.9349 66.4164 32.6206C65.6956 33.3063 64.7179 33.6915 63.6985 33.6915C62.6791 33.6915 61.7014 33.3063 60.9805 32.6206C60.2597 31.9349 59.8547 31.0049 59.8547 30.0352V26.379H56.011C54.9916 26.379 54.0139 25.9938 53.293 25.3081C52.5722 24.6224 52.1672 23.6924 52.1672 22.7227ZM74.7525 39.1759C75.9664 46.0473 74.8534 53.108 71.574 59.3386C68.2946 65.5691 63.0185 70.6472 56.5075 73.8397C49.9964 77.0322 42.5873 78.174 35.3497 77.1002C28.112 76.0263 21.4203 72.7925 16.2407 67.8655C11.061 62.9385 7.66135 56.5733 6.53247 49.6887C5.4036 42.8041 6.60391 35.7564 9.96014 29.563C13.3164 23.3695 18.6549 18.3508 25.2049 15.2314C31.755 12.112 39.1777 11.0532 46.4016 12.208C47.407 12.3696 48.3038 12.9045 48.8945 13.695C49.4853 14.4856 49.7218 15.467 49.5519 16.4233C49.382 17.3797 48.8196 18.2327 47.9886 18.7946C47.1575 19.3566 46.1258 19.5815 45.1204 19.4199C43.6384 19.1846 42.1385 19.0664 40.636 19.0665C35.585 19.0632 30.6352 20.4134 26.3537 22.9623C22.0721 25.5113 18.6319 29.1559 16.4273 33.4786C14.2226 37.8013 13.3426 42.6274 13.888 47.4039C14.4335 52.1803 16.3823 56.7141 19.5114 60.4857C22.0027 57.4715 25.1782 55.0321 28.8004 53.3499C26.492 51.1263 24.9264 48.3029 24.3007 45.235C23.6749 42.1671 24.017 38.9917 25.2837 36.1082C26.5505 33.2248 28.6855 30.7621 31.4201 29.0299C34.1546 27.2978 37.3666 26.3736 40.652 26.3736C43.9374 26.3736 47.1494 27.2978 49.8839 29.0299C52.6185 30.7621 54.7535 33.2248 56.0203 36.1082C57.2871 38.9917 57.6291 42.1671 57.0033 45.235C56.3776 48.3029 54.812 51.1263 52.5036 53.3499C56.1265 55.0311 59.3022 57.4706 61.7926 60.4857C65.531 55.9785 67.5573 50.4013 67.5422 44.6602C67.542 43.2311 67.4178 41.8043 67.1707 40.3946C67.0008 39.4382 67.2372 38.4568 67.828 37.6663C68.4188 36.8758 69.3155 36.3409 70.3209 36.1793C71.3264 36.0176 72.3581 36.2426 73.1891 36.8045C74.0202 37.3665 74.5826 38.2195 74.7525 39.1759ZM40.636 50.754C42.4098 50.754 44.1439 50.2536 45.6188 49.3162C47.0937 48.3788 48.2432 47.0464 48.922 45.4875C49.6008 43.9286 49.7785 42.2133 49.4324 40.5584C49.0863 38.9035 48.2322 37.3833 46.9779 36.1902C45.7235 34.9971 44.1255 34.1846 42.3857 33.8554C40.6459 33.5262 38.8426 33.6952 37.2038 34.3409C35.565 34.9866 34.1642 36.0801 33.1787 37.483C32.1932 38.886 31.6672 40.5354 31.6672 42.2227C31.6672 44.4854 32.6122 46.6553 34.2941 48.2552C35.9761 49.8552 38.2573 50.754 40.636 50.754ZM40.636 70.254C46.1948 70.2578 51.6168 68.6146 56.1487 65.5527C54.3643 63.2318 52.0296 61.3441 49.3342 60.0428C46.6388 58.7415 43.6587 58.0633 40.636 58.0633C37.6133 58.0633 34.6332 58.7415 31.9378 60.0428C29.2423 61.3441 26.9076 63.2318 25.1233 65.5527C29.6552 68.6146 35.0772 70.2578 40.636 70.254Z" fill="#FFC119"/>
</svg>
