<svg width="72" height="66" viewBox="0 0 72 66" fill="none" xmlns="http://www.w3.org/2000/svg">
<path fill-rule="evenodd" clip-rule="evenodd" d="M35.9418 0C16.0911 0 0 14.7741 0 33C0 51.2259 16.0911 66 35.9418 66C55.7924 66 71.8835 51.2259 71.8835 33C71.8835 14.7741 55.7924 0 35.9418 0ZM23.3621 24.75C23.3621 23.2332 23.6875 21.7313 24.3197 20.33C24.9519 18.9287 25.8785 17.6554 27.0466 16.5829C28.2147 15.5104 29.6015 14.6596 31.1277 14.0792C32.654 13.4987 34.2898 13.2 35.9418 13.2C37.5937 13.2 39.2295 13.4987 40.7558 14.0792C42.282 14.6596 43.6688 15.5104 44.8369 16.5829C46.005 17.6554 46.9316 18.9287 47.5638 20.33C48.196 21.7313 48.5214 23.2332 48.5214 24.75C48.5214 27.8132 47.196 30.751 44.8369 32.9171C42.4777 35.0831 39.2781 36.3 35.9418 36.3C32.6054 36.3 29.4058 35.0831 27.0466 32.9171C24.6875 30.751 23.3621 27.8132 23.3621 24.75ZM58.4341 49.4472C55.7436 52.5546 52.3233 55.0637 48.4285 56.7871C44.5338 58.5105 40.2652 59.4037 35.9418 59.4C31.6183 59.4037 27.3497 58.5105 23.455 56.7871C19.5602 55.0637 16.1399 52.5546 13.4494 49.4472C19.2756 45.6093 27.2259 42.9 35.9418 42.9C44.6576 42.9 52.6079 45.6093 58.4341 49.4472Z" fill="#FFC119"/>
</svg>
